<svg width="360" height="360" viewBox="0 0 360 360" fill="none" xmlns="http://www.w3.org/2000/svg">
<circle cx="180" cy="180" r="180" fill="#EBCEEA"/>
<path d="M105.174 184.549C117.332 177.067 132.668 177.067 144.826 184.549C151.983 188.953 157.47 195.615 160.421 203.483L160.532 203.782C162.164 208.134 163 212.743 163 217.391V268H87V217.391C87 212.743 87.836 208.134 89.4678 203.782L89.5791 203.483C92.5298 195.615 98.0169 188.953 105.174 184.549Z" stroke="#184A16" stroke-width="4"/>
<circle cx="125" cy="130" r="38" stroke="#184A16" stroke-width="4"/>
<path d="M215.174 184.549C227.332 177.067 242.668 177.067 254.826 184.549C261.983 188.953 267.47 195.615 270.421 203.483L270.532 203.782C272.164 208.134 273 212.743 273 217.391V268H197V217.391C197 212.743 197.836 208.134 199.468 203.782L199.579 203.483C202.53 195.615 208.017 188.953 215.174 184.549Z" stroke="#184A16" stroke-width="4"/>
<circle cx="235" cy="130" r="38" stroke="#184A16" stroke-width="4"/>
</svg>
