<svg width="360" height="360" viewBox="0 0 360 360" fill="none" xmlns="http://www.w3.org/2000/svg">
<circle cx="180" cy="180" r="180" fill="#E086A3"/>
<path d="M180 92C212.136 92 238 116.654 238 146.842C238 153.776 235.939 162.013 232.413 171.15C228.896 180.265 223.974 190.141 218.37 200.318C212.768 210.492 206.51 220.923 200.328 231.154C194.155 241.372 188.053 251.401 182.8 260.717C181.628 262.794 178.606 262.859 177.319 260.911L177.2 260.717C171.947 251.401 165.845 241.372 159.672 231.154C153.49 220.923 147.232 210.492 141.63 200.318C136.026 190.141 131.104 180.265 127.587 171.15C124.061 162.013 122 153.776 122 146.842C122 116.654 147.864 92 180 92Z" stroke="#184A16" stroke-width="4"/>
<circle cx="180" cy="150" r="28" stroke="#184A16" stroke-width="4"/>
</svg>
