<svg width="360" height="360" viewBox="0 0 360 360" fill="none" xmlns="http://www.w3.org/2000/svg">
<circle cx="180" cy="180" r="180" fill="#B1CC9D"/>
<path d="M180 92C212.136 92 238 116.654 238 146.842C238 154.311 235.609 163.284 231.583 173.251C227.568 183.19 221.992 193.965 215.759 204.999C209.527 216.031 202.671 227.267 196.101 238.15C190.289 247.777 184.698 257.132 180 265.77C175.302 257.132 169.711 247.777 163.899 238.15C157.329 227.267 150.473 216.031 144.241 204.999C138.008 193.965 132.432 183.19 128.417 173.251C124.391 163.284 122 154.311 122 146.842C122 116.654 147.864 92 180 92Z" stroke="#184A16" stroke-width="4"/>
<circle cx="180" cy="150" r="28" stroke="#184A16" stroke-width="4"/>
</svg>
