<svg width="360" height="360" viewBox="0 0 360 360" fill="none" xmlns="http://www.w3.org/2000/svg">
<circle cx="180" cy="180" r="180" fill="#D1775B"/>
<rect x="102" y="92" width="156" height="176" rx="8" stroke="#184A16" stroke-width="4"/>
<path d="M126.786 139.557C129.884 137.651 133.766 137.591 136.912 139.378L137.214 139.557C139.096 140.715 140.539 142.468 141.315 144.537L141.349 144.626C141.779 145.774 142 146.991 142 148.218V162H122V148.218L122.011 147.758C122.059 146.688 122.275 145.631 122.651 144.626L122.685 144.537C123.412 142.597 124.726 140.936 126.438 139.781L126.786 139.557Z" stroke="#184A16" stroke-width="4"/>
<path d="M132 112C137.523 112 142 116.477 142 122C142 127.523 137.523 132 132 132C126.477 132 122 127.523 122 122C122 116.477 126.477 112 132 112Z" stroke="#184A16" stroke-width="4"/>
<path d="M118.586 238.586C117.805 239.367 117.805 240.633 118.586 241.414C119.367 242.195 120.633 242.195 121.414 241.414L118.586 238.586ZM156.276 203.724L157.69 202.31L156.276 200.896L154.861 202.31L156.276 203.724ZM178.276 225.724L176.861 227.139L178.276 228.553L179.69 227.139L178.276 225.724ZM242 164C242 162.895 241.105 162 240 162H222C220.895 162 220 162.895 220 164C220 165.105 220.895 166 222 166H238V182C238 183.105 238.895 184 240 184C241.105 184 242 183.105 242 182V164ZM120 240L121.414 241.414L157.69 205.139L156.276 203.724L154.861 202.31L118.586 238.586L120 240ZM156.276 203.724L154.861 205.139L176.861 227.139L178.276 225.724L179.69 224.31L157.69 202.31L156.276 203.724ZM178.276 225.724L179.69 227.139L241.414 165.414L240 164L238.586 162.586L176.861 224.31L178.276 225.724Z" fill="#184A16"/>
</svg>
